<?xml version="1.0" encoding="UTF-8"?>
<svg width="34px" height="34px" viewBox="0 0 34 34" version="1.1" xmlns="http://www.w3.org/2000/svg" xmlns:xlink="http://www.w3.org/1999/xlink">
    <title>879A0A9F-24B3-4F3B-BF7A-475B72A5DE8B</title>
    <g id="Page-1" stroke="none" stroke-width="1" fill="none" fill-rule="evenodd">
        <g id="mobile---414" transform="translate(-89.000000, -678.000000)" fill="#F6F9FC">
            <path d="M120.384615,678 L91.6153846,678 C90.173,678 89,679.173 89,680.615385 L89,709.384615 C89,710.827 90.173,712 91.6153846,712 L105.346154,712 C105.707077,712 106,711.707077 106,711.346154 L106,702.192308 C106,701.831385 105.707077,701.538462 105.346154,701.538462 L102.730769,701.538462 C102.369846,701.538462 102.076923,701.245538 102.076923,700.884615 L102.076923,695.653846 C102.076923,695.292923 102.369846,695 102.730769,695 L105.346154,695 C105.707077,695 106,694.707077 106,694.346154 L106,691.730769 C106,687.764538 109.226077,684.538462 113.192308,684.538462 L117.115385,684.538462 C117.476308,684.538462 117.769231,684.831385 117.769231,685.192308 L117.769231,690.423077 C117.769231,690.784 117.476308,691.076923 117.115385,691.076923 L114.5,691.076923 C113.418538,691.076923 112.538462,691.957 112.538462,693.038462 L112.538462,694.346154 C112.538462,694.707077 112.831385,695 113.192308,695 L117.115385,695 C117.303692,695 117.481538,695.081077 117.605769,695.221 C117.73,695.362231 117.787538,695.549231 117.764,695.734923 L117.110154,700.965692 C117.069615,701.292615 116.789769,701.538462 116.461538,701.538462 L113.192308,701.538462 C112.831385,701.538462 112.538462,701.831385 112.538462,702.192308 L112.538462,711.346154 C112.538462,711.707077 112.831385,712 113.192308,712 L120.384615,712 C121.827,712 123,710.827 123,709.384615 L123,680.615385 C123,679.173 121.827,678 120.384615,678" id="Fill-42-Copy"></path>
        </g>
    </g>
</svg>