<?xml version="1.0" encoding="UTF-8"?>
<svg width="34px" height="34px" viewBox="0 0 34 34" version="1.1" xmlns="http://www.w3.org/2000/svg" xmlns:xlink="http://www.w3.org/1999/xlink">
    <title>08A1B6E3-FC5B-4AEC-8A47-97CB099805CB</title>
    <g id="Page-1" stroke="none" stroke-width="1" fill="none" fill-rule="evenodd">
        <g id="mobile---414" transform="translate(-155.000000, -678.000000)" fill="#F6F9FC">
            <path d="M180.5,678 C185.186769,678 189,681.813231 189,686.5 L189,686.5 L189,703.5 C189,708.186769 185.186769,712 180.5,712 L180.5,712 L163.5,712 C158.813231,712 155,708.186769 155,703.5 L155,703.5 L155,686.5 C155,681.813231 158.813231,678 163.5,678 L163.5,678 Z M180.5,680.615385 L163.5,680.615385 C160.255615,680.615385 157.615385,683.255615 157.615385,686.5 L157.615385,686.5 L157.615385,703.5 C157.615385,706.744385 160.255615,709.384615 163.5,709.384615 L163.5,709.384615 L180.5,709.384615 C183.744385,709.384615 186.384615,706.744385 186.384615,703.5 L186.384615,703.5 L186.384615,686.5 C186.384615,683.255615 183.744385,680.615385 180.5,680.615385 L180.5,680.615385 Z M171.999359,686 C176.962401,686 181,690.037311 181,695 C181,699.962689 176.962401,704 171.999359,704 C167.036317,704 163,699.962689 163,695 C163,690.037311 167.036317,686 171.999359,686 Z M171.999359,688.563372 C168.450117,688.563372 165.563555,691.451011 165.563555,695 C165.563555,698.548989 168.450117,701.436628 171.999359,701.436628 C175.548601,701.436628 178.436445,698.548989 178.436445,695 C178.436445,691.451011 175.548601,688.563372 171.999359,688.563372 Z M181.5,682 C182.3265,682 183,682.6735 183,683.5 C183,684.3265 182.3265,685 181.5,685 C180.6735,685 180,684.3265 180,683.5 C180,682.6735 180.6735,682 181.5,682 Z" id="Combined-Shape-Copy-2"></path>
        </g>
    </g>
</svg>