<?xml version="1.0" encoding="UTF-8"?>
<svg width="33px" height="34px" viewBox="0 0 33 34" version="1.1" xmlns="http://www.w3.org/2000/svg" xmlns:xlink="http://www.w3.org/1999/xlink">
    <title>64E6F56B-EA8B-404C-8847-A1427BF2EF27</title>
    <g id="Page-1" stroke="none" stroke-width="1" fill="none" fill-rule="evenodd">
        <g id="mobile---414" transform="translate(-221.000000, -678.000000)" fill="#F6F9FC">
            <path d="M250,707.346154 C250,707.707077 249.707077,708 249.346154,708 L244.115385,708 C243.754462,708 243.461538,707.707077 243.461538,707.346154 L243.461538,698.192308 C243.461538,697.110846 242.581462,696.230769 241.5,696.230769 C240.418538,696.230769 239.538462,697.110846 239.538462,698.192308 L239.538462,707.346154 C239.538462,707.707077 239.245538,708 238.884615,708 L233.653846,708 C233.292923,708 233,707.707077 233,707.346154 L233,691.653846 C233,691.292923 233.292923,691 233.653846,691 L238.884615,691 C239.245538,691 239.538462,691.292923 239.538462,691.653846 L239.538462,692.332538 C240.661769,691.473385 242.029615,691 243.461538,691 C247.066846,691 250,693.933154 250,697.538462 L250,707.346154 Z M229,690 C227.3464,690 226,688.4292 226,686.5 C226,684.5708 227.3464,683 229,683 C230.6536,683 232,684.5708 232,686.5 C232,688.4292 230.6536,690 229,690 L229,690 Z M232,707.346154 C232,707.707077 231.7312,708 231.4,708 L226.6,708 C226.2688,708 226,707.707077 226,707.346154 L226,691.653846 C226,691.292923 226.2688,691 226.6,691 L231.4,691 C231.7312,691 232,691.292923 232,691.653846 L232,707.346154 Z M251.461538,678 L223.538462,678 C222.1385,678 221,679.173 221,680.615385 L221,709.384615 C221,710.827 222.1385,712 223.538462,712 L251.461538,712 C252.8615,712 254,710.827 254,709.384615 L254,680.615385 C254,679.173 252.8615,678 251.461538,678 L251.461538,678 Z" id="Fill-115-Copy"></path>
        </g>
    </g>
</svg>