<?xml version="1.0" encoding="UTF-8"?>
<svg width="86px" height="30px" viewBox="0 0 86 30" version="1.1" xmlns="http://www.w3.org/2000/svg" xmlns:xlink="http://www.w3.org/1999/xlink">
    <title>CF029CB0-484F-4C39-A8C4-D169BBBA5B6A</title>
    <g id="Page-1" stroke="none" stroke-width="1" fill="none" fill-rule="evenodd">
        <g id="Mobile" transform="translate(-118.000000, -78.000000)" fill="#F6F9FC" fill-rule="nonzero">
            <g id="wegho-logo-white-copy" transform="translate(118.000000, 78.000000)">
                <path d="M46.4582011,8.63913774 C47.6981481,8.63913774 48.8357143,8.74244121 49.8822751,8.93756999 C50.928836,9.14417693 51.7706349,9.35078387 52.4190476,9.56886898 L52.4190476,23.3656215 C52.4190476,24.3527436 52.2484127,25.225084 51.9071429,25.9941209 C51.565873,26.7631579 51.0880952,27.4059351 50.4738095,27.9339306 C49.8708995,28.4619261 49.1428571,28.8521837 48.3124339,29.1276596 C47.4820106,29.4031355 46.5833333,29.5408735 45.6050265,29.5408735 C44.8542328,29.5408735 44.1944444,29.506439 43.6142857,29.43757 C43.034127,29.368701 42.5222222,29.2768757 42.0671958,29.1506159 C41.6121693,29.0243561 41.1912698,28.87514 40.815873,28.6914894 C40.4404762,28.5078387 40.0878307,28.3012318 39.7693122,28.0601904 L41.3846561,25.4316909 C41.9534392,25.8104703 42.5677249,26.0974244 43.2275132,26.2581187 C43.8873016,26.4302912 44.6608466,26.5106383 45.5481481,26.5106383 C46.4809524,26.5106383 47.265873,26.2236842 47.8915344,25.6612542 C48.5171958,25.0988242 48.8357143,24.3068309 48.8357143,23.2967525 L48.8357143,21.7586786 C48.3465608,22.1604143 47.8119048,22.4932811 47.2431217,22.7458007 C46.662963,22.9983203 45.9007937,23.1245801 44.9452381,23.1245801 C43.9100529,23.1245801 42.9886243,22.9524076 42.192328,22.6080627 C41.3960317,22.2637178 40.7021164,21.7816349 40.144709,21.1732923 C39.5759259,20.5534714 39.1436508,19.8303471 38.8478836,18.9924412 C38.5521164,18.1545353 38.4042328,17.2362822 38.4042328,16.2262038 C38.4042328,15.1816909 38.5862434,14.1945689 38.9616402,13.2648376 C39.337037,12.3351064 39.8716931,11.5316349 40.5769841,10.8429451 C41.2708995,10.1542553 42.1240741,9.61478163 43.1137566,9.22452408 C44.1034392,8.83426652 45.218254,8.63913774 46.4582011,8.63913774 Z M78.2417989,8.45548712 C79.3793651,8.45548712 80.4145503,8.66209406 81.3587302,9.06382979 C82.3029101,9.46556551 83.110582,10.0165174 83.781746,10.693729 C84.4529101,11.3824188 84.9761905,12.1858903 85.3515873,13.1041433 C85.7269841,14.0223964 85.9089947,14.9980403 85.9089947,16.0195969 C85.9089947,17.0526316 85.7269841,18.0167973 85.3515873,18.9350504 C84.9761905,19.8533035 84.4529101,20.6567749 83.781746,21.3569429 C83.110582,22.0571109 82.3029101,22.6080627 81.3587302,23.0097984 C80.4145503,23.4115342 79.3793651,23.6181411 78.2417989,23.6181411 C77.1042328,23.6181411 76.0690476,23.4115342 75.1248677,23.0097984 C74.1806878,22.6080627 73.3730159,22.0571109 72.7018519,21.3569429 C72.0306878,20.6567749 71.5074074,19.8533035 71.1320106,18.9350504 C70.7679894,18.0282755 70.5746032,17.0526316 70.5746032,16.0195969 C70.5746032,14.9865622 70.7566138,14.0223964 71.1320106,13.1041433 C71.5074074,12.1858903 72.0306878,11.3824188 72.7018519,10.693729 C73.3730159,10.0050392 74.1806878,9.46556551 75.1248677,9.06382979 C76.0690476,8.66209406 77.1042328,8.45548712 78.2417989,8.45548712 Z M29.8724868,8.46696529 C31.1693122,8.46696529 32.2727513,8.70800672 33.1714286,9.17861142 C34.0701058,9.64921613 34.7981481,10.269037 35.3441799,11.0380739 C35.8902116,11.8071109 36.2883598,12.6679731 36.5272487,13.643617 C36.7661376,14.6077828 36.8912698,15.5949048 36.8912698,16.6049832 L36.8912698,17.1215006 L26.2436508,17.1215006 C26.2436508,17.6494961 26.3574074,18.1201008 26.5962963,18.5447928 C26.8238095,18.9694849 27.1309524,19.3367861 27.5063492,19.6352184 C27.881746,19.9336506 28.3026455,20.174692 28.7804233,20.3353863 C29.2582011,20.4960806 29.7246032,20.5764278 30.1910053,20.5764278 C30.8849206,20.5764278 31.4878307,20.5075588 31.9997354,20.381299 C32.5116402,20.2550392 32.955291,20.0943449 33.3193122,19.9221725 C33.6833333,19.75 33.9791005,19.5663494 34.2179894,19.3826988 C34.4455026,19.18757 34.6275132,19.0383539 34.7526455,18.9120941 L36.7320106,21.0699888 C36.6751323,21.1273796 36.5044974,21.2995521 36.2314815,21.5635498 C35.9584656,21.8390258 35.5603175,22.1259798 35.0484127,22.4244121 C34.5365079,22.7228443 33.8767196,22.9983203 33.0690476,23.2393617 C32.2727513,23.4804031 31.3058201,23.6066629 30.1910053,23.6066629 C29.0534392,23.6066629 28.018254,23.4115342 27.0854497,23.0327548 C26.1526455,22.6539754 25.3563492,22.1259798 24.6965608,21.4487682 C24.0367725,20.7715566 23.5248677,19.9566069 23.1722222,19.0153975 C22.8195767,18.06271 22.6375661,17.0181971 22.6375661,15.8703807 C22.6375661,14.8258679 22.8195767,13.850224 23.1722222,12.9549272 C23.5248677,12.0596305 24.0253968,11.2791153 24.6624339,10.6133819 C25.2994709,9.94764838 26.0616402,9.41965286 26.9375661,9.04087346 C27.8248677,8.66209406 28.7917989,8.46696529 29.8724868,8.46696529 Z M61.6216045,8.56735264 L68.695122,15.5108359 L68.695122,23.1578947 L65.3481405,23.1578947 L65.3481405,16.8833849 L61.6216045,13.2155649 L57.8950685,16.8833849 L57.8950685,23.1578947 L54.548087,23.1578947 L54.548087,15.5108359 L61.6216045,8.56735264 Z M3.98148148,8.94904815 L6.71164021,18.8087906 L9.72619048,8.94904815 L12.7407407,8.94904815 L15.7780423,18.8087906 L18.4854497,8.94904815 L22.2507937,8.94904815 L17.4161376,23.1360582 L13.9465608,23.1360582 L11.0343915,14.5733483 L8.20185185,23.1360582 L4.85740741,23.1360582 L0.0227513228,8.94904815 L3.98148148,8.94904815 Z M78.2417989,11.5316349 C77.5478836,11.5316349 76.9563492,11.6693729 76.4444444,11.9448488 C75.9325397,12.2203247 75.5116402,12.5646697 75.181746,13.0008399 C74.8518519,13.4370101 74.6015873,13.9190929 74.4309524,14.4585666 C74.2716931,14.9980403 74.1920635,15.5145577 74.1920635,16.0195969 C74.1920635,16.5475924 74.2716931,17.0641097 74.4309524,17.5921053 C74.5902116,18.1201008 74.8404762,18.6021837 75.181746,19.0383539 C75.5116402,19.4860022 75.9325397,19.8418253 76.4444444,20.1173012 C76.9563492,20.3927772 77.5478836,20.5305151 78.2417989,20.5305151 C78.9357143,20.5305151 79.5272487,20.3927772 80.0391534,20.1173012 C80.5510582,19.8418253 80.9719577,19.4860022 81.3018519,19.0383539 C81.631746,18.5907055 81.8820106,18.1086226 82.0526455,17.5921053 C82.2119048,17.0641097 82.2915344,16.5475924 82.2915344,16.0195969 C82.2915344,15.5145577 82.2119048,14.9980403 82.0526455,14.4585666 C81.8933862,13.9190929 81.6431217,13.4370101 81.3018519,13.0008399 C80.9719577,12.5646697 80.5510582,12.2203247 80.0391534,11.9448488 C79.5272487,11.6693729 78.9357143,11.5316349 78.2417989,11.5316349 Z M46.5150794,11.7152856 C45.787037,11.7152856 45.15,11.8415454 44.6039683,12.0825868 C44.0579365,12.3236282 43.5915344,12.6450168 43.2047619,13.0467525 C42.8179894,13.4484882 42.5335979,13.9190929 42.3402116,14.4585666 C42.1468254,14.9980403 42.0558201,15.5489922 42.0558201,16.1343785 C42.0558201,17.224804 42.328836,18.1430571 42.8748677,18.8891377 C43.4208995,19.6352184 44.3082011,20.0025196 45.5253968,20.0025196 C46.6174603,20.0025196 47.4478836,19.7729563 48.005291,19.3023516 C48.5626984,18.8432251 48.8470899,18.0971445 48.8470899,17.0985442 L48.8470899,12.025196 L48.8357143,12.025196 C48.5513228,11.9218925 48.2555556,11.8530235 47.9484127,11.7956327 C47.6412698,11.74972 47.1634921,11.7152856 46.5150794,11.7152856 Z M29.8838624,11.4512878 C29.292328,11.4512878 28.7690476,11.5431131 28.3140212,11.7382419 C27.8589947,11.9333707 27.4722222,12.1744121 27.176455,12.4613662 C26.8693122,12.7483203 26.6417989,13.081187 26.4825397,13.4484882 C26.3232804,13.8157895 26.2436508,14.1716125 26.2436508,14.5389138 L33.2283069,14.5389138 C33.2283069,14.1716125 33.1600529,13.8157895 33.0121693,13.4484882 C32.8756614,13.081187 32.6595238,12.7597984 32.3865079,12.4613662 C32.1134921,12.1744121 31.7608466,11.9218925 31.3399471,11.7382419 C30.9190476,11.5431131 30.4298942,11.4512878 29.8838624,11.4512878 Z M57.8835668,3.15789474 L57.8835668,10.6434772 L54.5365854,13.9306744 L54.5365854,3.15789474 L57.8835668,3.15789474 Z" id="Combined-Shape"></path>
            </g>
        </g>
    </g>
</svg>