<?xml version="1.0" encoding="UTF-8"?>
<svg width="39px" height="29px" viewBox="0 0 39 29" version="1.1" xmlns="http://www.w3.org/2000/svg" xmlns:xlink="http://www.w3.org/1999/xlink">
    <title>98D4B4FA-6B21-4466-B299-CDA6698A145B</title>
    <g id="Page-1" stroke="none" stroke-width="1" fill="none" fill-rule="evenodd">
        <g id="mobile---414" transform="translate(-286.000000, -683.000000)" fill="#F6F9FC">
            <path d="M312.6893,698.569224 L300.9893,705.902665 C300.8853,705.968 300.7683,706 300.65,706 C300.5408,706 300.4316,705.972 300.3328,705.914665 C300.1274,705.79733 300,705.57466 300,705.333324 L300,690.666442 C300,690.426438 300.1274,690.203769 300.3328,690.0851 C300.5382,689.967765 300.7891,689.971765 300.9893,690.0971 L312.6893,697.430541 C312.8817,697.551876 313,697.767879 313,697.999883 C313,698.23322 312.8817,698.447889 312.6893,698.569224 M319.6349,683.899 C318.6495,683.815955 317.6927,683.726318 316.7437,683.638 C313.2441,683.309773 309.9395,683 305.5,683 C301.2113,683 297.6142,683.330864 294.1367,683.651182 C293.2189,683.735545 292.2998,683.819909 291.3651,683.899 C288.3569,684.154727 286,686.750227 286,689.811045 L286,705.190273 C286,708.249773 288.3569,710.846591 291.3651,711.101 C292.3427,711.184045 293.2917,711.272364 294.2355,711.360682 C297.7611,711.688909 301.0917,712 305.5,712 C310.0331,712 313.2623,711.694182 316.6839,711.371227 C317.6472,711.278955 318.6222,711.188 319.6349,711.101 C322.6444,710.846591 325,708.249773 325,705.190273 L325,689.811045 C325,686.750227 322.6444,684.154727 319.6349,683.899" id="Fill-50-Copy"></path>
        </g>
    </g>
</svg>